<?xml version="1.0" encoding="utf-8"?>
<!-- Generator: Adobe Illustrator 26.1.0, SVG Export Plug-In . SVG Version: 6.00 Build 0)  -->
<svg version="1.1" id="Layer_1" xmlns="http://www.w3.org/2000/svg" xmlns:xlink="http://www.w3.org/1999/xlink" x="0px" y="0px"
	 viewBox="0 0 150 150" style="enable-background:new 0 0 150 150;" xml:space="preserve">
<style type="text/css">
	.st0{fill:#5AE203;}
</style>
<g>
	<path class="st0" d="M0,69.1h16.9c2.8-27.5,24.7-49.4,52.1-52.1V0C32.3,2.9,2.9,32.3,0,69.1z"/>
	<path class="st0" d="M80.9,133.1V150c36.8-2.9,66.2-32.3,69.1-69.1h-16.9C130.3,108.4,108.4,130.3,80.9,133.1z"/>
	<path class="st0" d="M133.1,69.1H150C147.1,32.3,117.7,2.9,80.9,0v16.9C108.4,19.7,130.3,41.6,133.1,69.1z"/>
	<path class="st0" d="M16.9,80.9H0c2.9,36.8,32.3,66.2,69.1,69.1v-16.9C41.6,130.3,19.7,108.4,16.9,80.9z"/>
</g>
</svg>
