<svg xmlns="http://www.w3.org/2000/svg" viewBox="0 0 773.79 286.99"><defs><style>.cls-1{fill:#114dac;}.cls-2{fill:#5ae203;}</style></defs><g id="Laag_2" data-name="Laag 2"><g id="Layer_1" data-name="Layer 1"><path class="cls-1" d="M764.27,193.6a9.53,9.53,0,0,1-9.52-9.52v-56.5a46.85,46.85,0,0,0-93.69,0v56.5a9.53,9.53,0,0,1-19,0v-56.5a65.89,65.89,0,0,1,131.78,0v56.5A9.53,9.53,0,0,1,764.27,193.6Z"/><path class="cls-1" d="M448.39,193.6a9.53,9.53,0,0,1-9.52-9.52v-56.5a46.85,46.85,0,0,0-93.69,0v56.5a9.53,9.53,0,0,1-19.05,0v-56.5a65.89,65.89,0,0,1,131.78,0v56.5A9.53,9.53,0,0,1,448.39,193.6Z"/><path class="cls-1" d="M155.38,193.6a9.53,9.53,0,0,1-9.52-9.52V9.91a9.52,9.52,0,0,1,19,0V184.08A9.53,9.53,0,0,1,155.38,193.6Z"/><path class="cls-1" d="M302.7,193.49a9.48,9.48,0,0,1-9.46-4.27L290.51,185a3,3,0,0,0-3.88-1l-4.46,2.31c-9.36,4.86-21.48,7.32-36,7.32-20.77,0-37.84-6.59-49.37-19.07-10.79-11.67-16.49-27.85-16.49-46.79a66,66,0,0,1,65.86-65.92h3.38c30.59,0,61.25,24.89,61.25,55.49V183.8A9.71,9.71,0,0,1,302.7,193.49ZM246.34,80.87a46.9,46.9,0,0,0-47,46.1c-.33,28,19,47.59,46.81,47.59,16.1,0,30.26-4.4,42.11-13.09h0a8.52,8.52,0,0,0,3.48-6.86v-37.3c0-20.1-22.12-36.44-42.21-36.44Z"/><path class="cls-1" d="M63.79,0H58.25A58.42,58.42,0,0,0,0,58.25V183.8a9.7,9.7,0,0,0,8.6,9.76A9.53,9.53,0,0,0,19,184.08V135.62a3.84,3.84,0,0,1,3.84-3.84H64.63a66,66,0,0,0,65.85-66.54C130.15,29,100.06,0,63.79,0Zm.06,112.74h-41A3.84,3.84,0,0,1,19,108.9V58.25A39.33,39.33,0,0,1,58.25,19h6.38a46.9,46.9,0,0,1,46.8,47.75C111,92.43,89.49,112.74,63.85,112.74Z"/><path class="cls-2" d="M543.92,68.35V51a77,77,0,0,0-70.63,70.63H490.6A59.78,59.78,0,0,1,543.92,68.35Z"/><path class="cls-2" d="M556,187.07v17.32a77,77,0,0,0,70.63-70.63H609.32A59.77,59.77,0,0,1,556,187.07Z"/><path class="cls-2" d="M609.32,121.67h17.32A77,77,0,0,0,556,51V68.35A59.78,59.78,0,0,1,609.32,121.67Z"/><path class="cls-2" d="M490.6,133.76H473.29a77,77,0,0,0,70.63,70.63V187.07A59.77,59.77,0,0,1,490.6,133.76Z"/><path class="cls-1" d="M0,274.55v-42.5H13.9q6.92,0,10.4,2.86t3.49,8.47a8.59,8.59,0,0,1-1.69,5.26,11,11,0,0,1-4.61,3.55,9.84,9.84,0,0,1,5.44,3.66,10.55,10.55,0,0,1,2,6.44,11.36,11.36,0,0,1-3.71,9q-3.7,3.27-10.48,3.27Zm5.6-24.37h8.47A8.87,8.87,0,0,0,20,248.33a6.16,6.16,0,0,0,2.21-5q0-3.51-2.05-5.1t-6.21-1.6H5.6Zm0,4.49V270h9.26a8.91,8.91,0,0,0,6.17-2,7.12,7.12,0,0,0,2.26-5.59q0-7.68-8.34-7.68Z"/><path class="cls-1" d="M55.87,271.43q-3.15,3.7-9.25,3.71-5.05,0-7.69-2.94c-1.76-1.95-2.65-4.85-2.67-8.68V243h5.4v20.4q0,7.19,5.83,7.18,6.19,0,8.24-4.61V243h5.4v31.58H56Z"/><path class="cls-1" d="M69.36,234.59a3.24,3.24,0,0,1,.8-2.22,3,3,0,0,1,2.38-.9,3.09,3.09,0,0,1,2.4.9,3.2,3.2,0,0,1,.81,2.22,2.9,2.9,0,0,1-3.21,3.06,3.09,3.09,0,0,1-2.38-.87A3.16,3.16,0,0,1,69.36,234.59Zm5.84,40H69.8V243h5.4Z"/><path class="cls-1" d="M89.71,274.55h-5.4V229.71h5.4Z"/><path class="cls-1" d="M97,258.5q0-7.27,3.45-11.69a11.71,11.71,0,0,1,17.81-.63V229.71h5.4v44.84h-5l-.26-3.38a11,11,0,0,1-9,4,10.79,10.79,0,0,1-9-4.5Q97,266.14,97,258.91Zm5.4.61q0,5.37,2.22,8.41a7.17,7.17,0,0,0,6.13,3,7.88,7.88,0,0,0,7.51-4.61V251.43a7.94,7.94,0,0,0-7.45-4.46,7.21,7.21,0,0,0-6.19,3.06Q102.43,253.09,102.43,259.11Z"/><path class="cls-1" d="M132.09,234.59a3.2,3.2,0,0,1,.81-2.22,3,3,0,0,1,2.37-.9,3.08,3.08,0,0,1,2.4.9,3.2,3.2,0,0,1,.82,2.22,2.92,2.92,0,0,1-3.22,3.06,3.05,3.05,0,0,1-2.37-.87A3.12,3.12,0,0,1,132.09,234.59Zm5.84,40h-5.4V243h5.4Z"/><path class="cls-1" d="M151.68,243l.18,4a11.49,11.49,0,0,1,9.45-4.56q10,0,10.1,11.3v20.87H166v-20.9a7.28,7.28,0,0,0-1.56-5.05,6.25,6.25,0,0,0-4.77-1.63,7.74,7.74,0,0,0-4.61,1.4,9.44,9.44,0,0,0-3.1,3.68v22.5h-5.4V243Z"/><path class="cls-1" d="M178.27,258.5q0-7.4,3.42-11.75a11.77,11.77,0,0,1,18.07-.28L200,243H205v30.82q0,6.13-3.64,9.67T191.56,287a16.31,16.31,0,0,1-6.69-1.46,11.58,11.58,0,0,1-5-4l2.8-3.24a10.57,10.57,0,0,0,8.5,4.29,8.27,8.27,0,0,0,6.14-2.22,8.48,8.48,0,0,0,2.21-6.25V271.4a11.11,11.11,0,0,1-8.85,3.74,10.79,10.79,0,0,1-9-4.47Q178.28,266.2,178.27,258.5Zm5.43.61q0,5.34,2.19,8.39a7.11,7.11,0,0,0,6.13,3.05,7.91,7.91,0,0,0,7.51-4.64V251.49a8,8,0,0,0-7.45-4.52,7.18,7.18,0,0,0-6.16,3.06Q183.7,253.09,183.7,259.11Z"/><path class="cls-1" d="M260,261.07q-.78,6.74-5,10.4t-11.13,3.67a15,15,0,0,1-12.07-5.4q-4.54-5.4-4.54-14.45V251.2a24.2,24.2,0,0,1,2.11-10.42,15.82,15.82,0,0,1,6-6.91,16.76,16.76,0,0,1,9-2.4q6.78,0,10.86,3.78T260,245.71h-5.63q-.74-5.1-3.17-7.38a9.61,9.61,0,0,0-6.82-2.28,10,10,0,0,0-8.42,4q-3,4-3.05,11.31v4.12c0,4.61,1,8.29,2.89,11a9.33,9.33,0,0,0,8.09,4.09q4.66,0,7.16-2.11c1.67-1.41,2.77-3.87,3.32-7.37Z"/><path class="cls-1" d="M265.38,258.47a18.59,18.59,0,0,1,1.83-8.35,13.56,13.56,0,0,1,5.08-5.72,13.75,13.75,0,0,1,7.43-2,13.29,13.29,0,0,1,10.43,4.47q4,4.47,4,11.88v.38a18.84,18.84,0,0,1-1.77,8.28,13.4,13.4,0,0,1-5.05,5.7,13.94,13.94,0,0,1-7.55,2.05,13.26,13.26,0,0,1-10.4-4.47q-4-4.47-4-11.82Zm5.43.64a13.52,13.52,0,0,0,2.44,8.44,8.25,8.25,0,0,0,13.06-.05q2.43-3.22,2.43-9a13.5,13.5,0,0,0-2.47-8.42,7.85,7.85,0,0,0-6.55-3.23,7.77,7.77,0,0,0-6.46,3.18Q270.82,253.18,270.81,259.11Z"/><path class="cls-1" d="M306,243l.17,4a11.52,11.52,0,0,1,9.46-4.56q10,0,10.1,11.3v20.87h-5.4v-20.9a7.28,7.28,0,0,0-1.56-5.05A6.25,6.25,0,0,0,314,247a7.77,7.77,0,0,0-4.62,1.4,9.5,9.5,0,0,0-3.09,3.68v22.5h-5.4V243Z"/><path class="cls-1" d="M339,243l.18,4a11.51,11.51,0,0,1,9.46-4.56q10,0,10.1,11.3v20.87h-5.4v-20.9a7.28,7.28,0,0,0-1.56-5.05A6.29,6.29,0,0,0,347,247a7.74,7.74,0,0,0-4.61,1.4,9.5,9.5,0,0,0-3.09,3.68v22.5h-5.4V243Z"/><path class="cls-1" d="M380,275.14a13.8,13.8,0,0,1-10.45-4.22q-4-4.21-4-11.29v-1a18.9,18.9,0,0,1,1.8-8.39,14,14,0,0,1,5-5.78,12.63,12.63,0,0,1,7-2.09c4.1,0,7.3,1.36,9.57,4.06s3.42,6.58,3.42,11.62v2.25h-21.4a11.23,11.23,0,0,0,2.73,7.54,8.58,8.58,0,0,0,6.64,2.88,9.42,9.42,0,0,0,4.85-1.17,12.25,12.25,0,0,0,3.47-3.09l3.3,2.56Q387.93,275.14,380,275.14Zm-.67-28.32a7.2,7.2,0,0,0-5.49,2.38,11.57,11.57,0,0,0-2.74,6.67h15.82v-.41a10.35,10.35,0,0,0-2.22-6.38A6.76,6.76,0,0,0,379.32,246.82Z"/><path class="cls-1" d="M411.22,270.73a7.81,7.81,0,0,0,5-1.75,6.2,6.2,0,0,0,2.4-4.38h5.11a9.77,9.77,0,0,1-1.87,5.16,12.34,12.34,0,0,1-4.6,3.92,13.3,13.3,0,0,1-6.09,1.46A13,13,0,0,1,401,270.83q-3.81-4.31-3.81-11.78v-.9a19,19,0,0,1,1.7-8.21,12.9,12.9,0,0,1,4.86-5.57,13.73,13.73,0,0,1,7.49-2,12.68,12.68,0,0,1,8.83,3.18,11.43,11.43,0,0,1,3.75,8.27h-5.11a7.46,7.46,0,0,0-2.32-5,7.23,7.23,0,0,0-5.15-2,7.56,7.56,0,0,0-6.38,3c-1.51,2-2.27,4.83-2.27,8.57v1q0,5.46,2.25,8.41A7.59,7.59,0,0,0,411.22,270.73Z"/><path class="cls-1" d="M437.18,235.32V243h5.89v4.17h-5.89v19.61a4.41,4.41,0,0,0,.78,2.85,3.3,3.3,0,0,0,2.69.95,12.63,12.63,0,0,0,2.57-.35v4.36a16,16,0,0,1-4.15.58,6.74,6.74,0,0,1-5.46-2.19,9.46,9.46,0,0,1-1.83-6.22V247.14H426V243h5.76v-7.65Z"/><path class="cls-1" d="M449.41,234.59a3.19,3.19,0,0,1,.8-2.22,3.61,3.61,0,0,1,4.77,0,3.16,3.16,0,0,1,.82,2.22,3.2,3.2,0,1,1-6.39,0Zm5.84,40h-5.4V243h5.4Z"/><path class="cls-1" d="M462.46,258.47a18.59,18.59,0,0,1,1.82-8.35,13.62,13.62,0,0,1,5.08-5.72,13.78,13.78,0,0,1,7.43-2,13.33,13.33,0,0,1,10.44,4.47q4,4.47,4,11.88v.38a18.84,18.84,0,0,1-1.77,8.28,13.34,13.34,0,0,1-5.05,5.7,13.91,13.91,0,0,1-7.54,2.05,13.3,13.3,0,0,1-10.41-4.47q-4-4.47-4-11.82Zm5.43.64a13.58,13.58,0,0,0,2.43,8.44,8.27,8.27,0,0,0,13.07-.05q2.42-3.22,2.42-9a13.44,13.44,0,0,0-2.47-8.42,7.84,7.84,0,0,0-6.55-3.23,7.74,7.74,0,0,0-6.45,3.18C468.7,252.12,467.89,255.16,467.89,259.11Z"/><path class="cls-1" d="M503.09,243l.18,4a11.49,11.49,0,0,1,9.45-4.56q10,0,10.1,11.3v20.87h-5.4v-20.9a7.28,7.28,0,0,0-1.56-5.05,6.25,6.25,0,0,0-4.77-1.63,7.74,7.74,0,0,0-4.61,1.4,9.44,9.44,0,0,0-3.1,3.68v22.5H498V243Z"/><path class="cls-1" d="M549.36,266.17a4,4,0,0,0-1.65-3.4,16,16,0,0,0-5.75-2.08,27.45,27.45,0,0,1-6.51-2.11,9.16,9.16,0,0,1-3.56-2.92,6.94,6.94,0,0,1-1.15-4,8.19,8.19,0,0,1,3.28-6.57,12.83,12.83,0,0,1,8.39-2.69,13.22,13.22,0,0,1,8.72,2.78,8.81,8.81,0,0,1,3.34,7.09H549a4.88,4.88,0,0,0-1.88-3.82,7.08,7.08,0,0,0-4.75-1.61,7.43,7.43,0,0,0-4.61,1.28,4,4,0,0,0-1.66,3.36,3.27,3.27,0,0,0,1.54,2.95,19.32,19.32,0,0,0,5.59,1.9,28.9,28.9,0,0,1,6.56,2.16,9.51,9.51,0,0,1,3.72,3,7.4,7.4,0,0,1,1.21,4.3,8.07,8.07,0,0,1-3.39,6.79,14.19,14.19,0,0,1-8.78,2.56,15.87,15.87,0,0,1-6.72-1.35A10.89,10.89,0,0,1,531.3,270a9,9,0,0,1-1.64-5.21h5.4a5.58,5.58,0,0,0,2.17,4.31,8.44,8.44,0,0,0,5.36,1.59,8.79,8.79,0,0,0,4.92-1.24A3.83,3.83,0,0,0,549.36,266.17Z"/></g></g></svg>